# Blender 5.1.0
# www.blender.org
mtllib cofrecarro.mtl
o car.002
v -2.232712 1.097209 -1.114950
v -2.176512 1.105609 -1.119850
v -2.246802 1.113999 -0.985149
v -2.287112 1.119589 -0.859950
v -2.316722 1.122389 -0.697650
v -2.328362 1.125179 -0.538650
v -2.334142 1.125179 -0.354150
v -2.803692 1.071769 -0.354150
v -2.787232 1.071119 -0.502450
v -2.777622 1.065079 -0.647750
v -2.777382 1.057849 -0.793650
v -2.564272 1.058059 -1.056049
v -2.781942 1.035679 -1.010750
v -2.427102 1.074839 -1.083250
v -2.329902 1.086029 -1.100450
v -3.131442 0.986738 0.208150
v -3.227322 0.962965 0.177450
v -3.253622 0.970489 0.011650
v -3.050622 1.015769 0.043050
v -3.035562 1.004919 0.238851
v -2.777382 1.057849 0.085350
v -2.781942 1.035679 0.302450
v -2.564272 1.058059 0.347750
v -2.287112 1.119589 0.151650
v -2.427102 1.074839 0.374950
v -2.329902 1.086029 0.392150
v -2.246802 1.113999 0.276850
v -2.212162 1.095249 0.218550
v -2.226192 1.095249 0.171451
v -2.316722 1.122389 -0.010650
v -2.328362 1.125179 -0.169650
v -2.232712 1.097209 0.406650
v -2.176512 1.105609 0.411550
v -2.229442 1.095249 0.156950
v -2.787232 1.071119 -0.205850
v -3.063732 1.026239 -0.205850
v -3.080192 1.029689 -0.354150
v -3.269142 0.983753 -0.205850
v -3.285612 0.987206 -0.354150
v -3.431822 0.939786 -0.197450
v -3.448292 0.943238 -0.354150
v -3.569052 0.879501 -0.180650
v -3.585522 0.880156 -0.354150
v -3.569052 0.879501 -0.527650
v -3.431822 0.939786 -0.510850
v -3.269142 0.983753 -0.502450
v -3.063732 1.026239 -0.502450
v -3.053632 1.020199 -0.631350
v -3.050622 1.015769 -0.751350
v -3.035562 1.004919 -0.947150
v -3.131442 0.986738 -0.916450
v -3.253622 0.970489 -0.719950
v -3.227322 0.962965 -0.885650
v -3.337532 0.936395 -0.845050
v -3.419982 0.926521 -0.695050
v -3.447742 0.904231 -0.804450
v -3.540252 0.863677 -0.761849
v -3.632832 0.817529 -0.703750
v -3.552792 0.869033 -0.688050
v -3.632512 0.828716 -0.631050
v -3.558062 0.873466 -0.626550
v -3.640222 0.834310 -0.538750
v -3.641322 0.806803 -0.662350
v -3.630392 0.802577 -0.661350
v -3.540252 0.863677 0.053550
v -3.447742 0.904231 0.096150
v -3.337532 0.936395 0.136750
v -3.419982 0.926521 -0.013249
v -3.258692 0.977718 -0.089150
v -3.421082 0.933751 -0.098750
v -3.558062 0.873466 -0.081750
v -3.632512 0.828716 -0.077250
v -3.640222 0.834310 -0.169550
v -3.650032 0.834310 -0.244350
v -3.660052 0.831513 -0.295950
v -3.660052 0.831513 -0.412350
v -3.650032 0.834310 -0.463950
v -3.628662 0.808858 -0.426550
v -3.628082 0.810977 -0.162149
v -3.628662 0.808858 -0.281750
v -3.632832 0.817529 -0.004550
v -3.552792 0.869033 -0.020249
v -3.651622 0.817424 -0.148550
v -3.053632 1.020199 -0.076950
v -2.777622 1.065079 -0.060550
v -3.421082 0.933751 -0.609550
v -3.258692 0.977718 -0.619150
v -3.651082 0.816313 -0.190850
v -3.646382 0.816313 -0.129450
v -3.637492 0.816313 -0.078050
v -3.637032 0.816313 -0.068350
v -3.630222 0.816313 -0.022450
v -3.629762 0.816313 -0.012650
v -3.640382 0.816313 -0.098949
v -3.640842 0.816313 -0.108749
v -3.634332 0.816313 -0.050250
v -3.633872 0.816313 -0.040450
v -3.649632 0.817132 -0.160150
v -3.650092 0.817132 -0.169849
v -3.656772 0.816313 -0.456150
v -3.653292 0.816273 -0.476950
v -3.652832 0.816273 -0.486750
v -3.651082 0.816313 -0.517449
v -3.651542 0.816313 -0.507649
v -3.637492 0.816313 -0.630250
v -3.637032 0.816313 -0.639950
v -3.630222 0.816313 -0.685850
v -3.634332 0.816313 -0.658050
v -3.633872 0.816313 -0.667850
vn -0.1477 0.9805 -0.1299
vn -0.1585 0.9769 -0.1436
vn -0.1463 0.9789 -0.1424
vn -0.1168 0.9930 -0.0158
vn -0.1357 0.9908 -0.0000
vn -0.1130 0.9936 -0.0000
vn -0.1416 0.9892 -0.0376
vn -0.1266 0.9911 -0.0415
vn -0.1485 0.9877 -0.0481
vn -0.1408 0.9873 -0.0734
vn -0.1432 0.9857 -0.0893
vn -0.1343 0.9852 -0.1062
vn -0.1329 0.9863 -0.0979
vn -0.1468 0.9825 -0.1143
vn -0.1358 0.9808 -0.1399
vn -0.2332 0.9698 0.0720
vn -0.2455 0.9666 0.0742
vn -0.2644 0.9606 0.0856
vn -0.1904 0.9802 0.0547
vn -0.1713 0.9821 0.0782
vn -0.1409 0.9873 0.0734
vn -0.1329 0.9863 0.0979
vn -0.1343 0.9852 0.1062
vn -0.1432 0.9857 0.0893
vn -0.1469 0.9825 0.1143
vn -0.1477 0.9805 0.1299
vn -0.1359 0.9808 0.1399
vn 0.3632 0.9259 -0.1041
vn 0.4124 0.9071 -0.0844
vn 0.3331 0.9377 -0.0988
vn -0.1585 0.9769 0.1436
vn -0.1462 0.9790 0.1424
vn -0.1168 0.9930 0.0159
vn -0.1416 0.9892 0.0376
vn -0.1801 0.9824 0.0497
vn -0.1852 0.9827 -0.0000
vn -0.2310 0.9710 0.0617
vn -0.2407 0.9706 -0.0000
vn -0.3128 0.9473 0.0695
vn -0.3591 0.9333 -0.0000
vn -0.4594 0.8848 0.0783
vn -0.4939 0.8695 -0.0000
vn -0.4596 0.8847 -0.0785
vn -0.3128 0.9473 -0.0695
vn -0.2310 0.9710 -0.0616
vn -0.1801 0.9824 -0.0498
vn -0.1871 0.9808 -0.0557
vn -0.1904 0.9802 -0.0547
vn -0.1713 0.9821 -0.0782
vn -0.2332 0.9698 -0.0720
vn -0.2455 0.9666 -0.0742
vn -0.2643 0.9606 -0.0855
vn -0.2820 0.9549 -0.0935
vn -0.3195 0.9435 -0.0883
vn -0.3897 0.9140 -0.1126
vn -0.5404 0.8165 -0.2032
vn -0.4556 0.8830 -0.1129
vn -0.5183 0.8296 -0.2077
vn -0.5143 0.8507 -0.1091
vn -0.4500 0.8871 -0.1033
vn -0.5250 0.8471 -0.0825
vn -0.8530 0.5127 -0.0971
vn -0.7958 0.5957 -0.1086
vn -0.8774 0.4723 -0.0839
vn -0.8918 0.4490 -0.0562
vn -0.2819 0.9549 0.0934
vn -0.3195 0.9435 0.0883
vn -0.3897 0.9140 0.1126
vn -0.2348 0.9691 0.0757
vn -0.3374 0.9371 0.0894
vn -0.4500 0.8871 0.1033
vn -0.5143 0.8506 0.1092
vn -0.5250 0.8471 0.0825
vn -0.5202 0.8521 0.0581
vn -0.6095 0.7926 0.0181
vn -0.6095 0.7926 -0.0181
vn -0.5202 0.8521 -0.0583
vn -0.4556 0.8830 0.1129
vn -0.5404 0.8165 0.2032
vn -0.5183 0.8296 0.2077
vn -0.1871 0.9808 0.0557
vn -0.1485 0.9877 0.0481
vn -0.1266 0.9911 0.0415
vn -0.3374 0.9371 -0.0894
vn -0.2348 0.9691 -0.0757
vt -92.374001 6.916650
vt -98.162003 5.370370
vt -96.534401 3.824080
vt -54.472500 59.882000
vt -46.626801 41.285500
vt -47.205101 59.882000
vt -50.544201 35.952900
vt -60.471401 53.526699
vt -56.415001 35.737202
vt -69.899200 48.429100
vt -58.414902 31.864901
vt -63.687199 49.332699
vt -61.799301 23.426399
vt -75.641602 38.077301
vt -67.272301 21.701799
vt -75.568398 38.241100
vt -72.602501 19.778601
vt -67.235901 21.846800
vt -71.583000 24.205299
vt -73.399200 42.816101
vt -79.846497 42.009499
vt -86.707100 -1.140500
vt -73.399002 -1.185870
vt -87.549301 12.417300
vt -73.403397 -2.126020
vt -86.711502 -2.074280
vt -79.945801 -7.697520
vt -86.915199 1.138220
vt -87.399597 14.713500
vt -91.043198 4.840580
vt -86.038803 24.959000
vt -91.083801 23.784401
vt -90.777496 15.562400
vt -89.773201 -6.660530
vt -92.093903 1.233120
vt -92.968597 -4.405200
vt -91.897003 -0.830447
vt -95.815498 -4.224220
vt -92.646698 -6.486730
vt -14.463900 41.024799
vt -23.303900 38.732601
vt -16.775400 37.671200
vt -24.773001 36.094200
vt -16.059200 38.827099
vt -21.520399 43.710098
vt -11.694600 42.556999
vt -19.188900 44.508400
vt -14.048800 39.288399
vt -9.368630 41.776199
vt -11.067700 53.663700
vt -16.719299 44.213501
vt 5.606480 49.842201
vt -1.367640 54.862801
vt -2.067530 42.874802
vt 15.919100 54.267399
vt 2.611030 54.215698
vt 9.153420 48.644199
vt 2.634420 54.976002
vt 15.942500 55.021301
vt 16.784700 68.579201
vt 15.131100 68.992104
vt 14.646700 55.416801
vt 18.774700 59.119099
vt 28.091299 64.561203
vt 25.770599 56.667500
vt 28.966000 58.922901
vt 12.940300 69.429604
vt 7.895290 70.604202
vt 12.634000 61.207600
vt 9.789570 -43.211899
vt 12.974600 -40.678200
vt 7.827430 -41.260502
vt 30.792999 65.011902
vt 25.004999 66.558098
vt 29.165300 63.465599
vt 33.284901 60.511101
vt 29.366400 63.904900
vt 30.116199 58.248600
vt -44.245201 44.111500
vt -36.399399 62.708000
vt -43.666801 62.708000
vt -29.464100 66.750702
vt -39.391201 49.176899
vt -33.520500 48.961201
vt -33.944199 50.196400
vt -39.816799 50.355999
vt -35.435101 39.269299
vt -37.015598 43.896599
vt -31.204800 43.022499
vt -34.237099 54.551498
vt -32.593300 43.630299
vt -38.432800 44.285900
vt -34.357899 35.562599
vt -40.197399 36.218201
vt -35.029999 36.590199
vt -40.883499 37.106800
vt -35.950199 30.011499
vt -42.359798 30.204800
vt -36.176498 29.691999
vt -41.184898 36.734501
vt -36.760700 32.874199
vt -42.956001 33.214100
vt -36.941700 26.939199
vt -37.610901 25.752800
vt -43.916901 31.734501
vt -44.471100 25.814301
vt -46.519798 23.267500
vt -52.825802 17.285900
vt -45.965599 17.347401
vt -46.871399 20.354601
vt -53.066601 20.014700
vt -52.885601 14.079700
vt -53.197300 13.611400
vt -47.013901 14.124100
vt -48.188801 20.653799
vt -48.300900 20.067101
vt -54.154301 19.550600
vt -53.234100 12.971800
vt -54.367901 16.156200
vt -48.528400 16.811800
vt -50.292999 24.879499
vt -56.132500 24.223900
vt -56.700298 20.099100
vt -50.889500 20.973301
vt -53.667999 31.628201
vt -50.243000 38.068199
vt -56.115501 37.908600
vt -54.624599 26.981501
vt -61.489899 25.782101
vt -62.643299 14.015600
vt -57.741501 15.410400
vt -62.263500 16.806601
vt -60.592400 28.510900
vt -66.160400 27.123400
vt -64.770699 31.038401
vt -66.133102 19.459299
vt -61.519798 20.500099
vt -66.732903 15.831200
vt -65.998802 27.467100
vt -71.491302 25.761200
vt -72.942497 19.444700
vt -74.641701 7.557120
vt -67.291000 9.994430
vt -73.890297 4.629340
vt -80.864502 -0.391219
vt -73.190399 -7.358600
vt -66.952301 16.136801
vt -74.446602 14.185500
vt -72.092499 10.916800
vt -71.794403 16.077499
vt -63.080601 13.344500
vt -66.333099 20.960501
vt -63.216599 11.913700
vt -72.056602 14.205900
vt -69.745102 10.852300
vt -63.217999 11.728600
vt -69.744904 10.657800
vt -66.883797 6.876810
vt -66.921501 7.675790
vt -60.316799 6.282130
vt -63.204300 12.488300
vt -60.112598 6.374550
vt -66.762398 7.533740
vt -63.807499 3.757530
vt -58.396702 8.339500
vt -58.679199 12.126600
vt -61.608898 11.732700
vt -56.022900 11.100500
vt -58.953400 14.070800
vt -58.798901 10.276300
vt -56.288898 12.268000
vt -56.712002 15.665900
vt -59.124100 15.329400
vt -56.248901 11.975700
vt -52.790699 15.829300
vt -56.690498 15.371300
vt -52.863400 17.682100
vt -56.421200 13.920300
vt -52.794399 14.334700
vt -57.789501 27.761600
vt -52.965000 29.006300
vt -56.606602 28.753201
vt -57.808601 29.724800
vt -56.605202 30.691401
vt -59.458698 30.197901
vt -18.954901 36.083099
vt -25.604799 34.923901
vt -21.909901 32.306900
vt -26.467199 32.305500
vt -19.862499 33.699100
vt -23.579599 38.511600
vt -16.733900 37.619900
vt -23.260900 38.690701
vt -19.595100 33.838902
vt -27.508801 39.458900
vt -26.530800 32.223301
vt -23.660000 38.437199
vt -26.323799 32.444099
vt -27.238701 39.688000
vt -29.544500 33.466999
vt -32.901299 39.417301
vt -30.437901 32.250500
vt -28.362801 38.552299
vt -29.110701 33.719898
vt -31.182301 41.009602
vt -32.926201 34.599701
vt -30.961201 35.382599
vt -34.832100 35.973099
vt -35.513500 30.074600
vt -30.927200 35.440300
vt -35.486900 30.138700
vt -31.604900 29.548901
vt -36.116501 32.078701
vt -32.658298 28.225100
vt -32.216702 31.620701
vt -33.028301 27.699100
vt -36.585999 31.460800
vt -36.654999 28.113400
vt -37.198799 26.562300
vt -37.270401 29.909700
vt -40.171799 26.562300
vt -44.494499 28.706200
vt -40.450699 25.237499
vt -37.634102 28.656601
vt -44.457802 28.777901
vt -42.483601 25.086399
vt -40.423199 25.298599
vt -45.458199 25.647900
vt -47.749100 22.143999
vt -43.167301 22.143999
vt -47.942699 17.026199
vt -45.968399 20.717800
vt -50.003101 17.238400
vt -50.004200 17.424400
vt -45.960400 20.893101
vt -52.820801 20.843500
vt -52.875301 19.903500
vt -52.946899 16.556101
vt -49.973900 16.556101
vt -28.661600 33.449100
vt -28.944099 29.662001
vt -25.731899 33.055199
vt -29.326000 32.444500
vt -32.256599 29.474300
vt -29.480499 28.650101
vt -32.314201 31.436100
vt -32.737301 28.038099
vt -29.902100 31.099501
vt -29.196600 29.136801
vt -30.911699 35.460899
vt -31.593201 29.569901
vt -31.899200 34.276001
vt -29.918301 28.030001
vt -28.592800 33.578300
vt -29.835501 28.194700
vt -24.496599 31.587601
vt -28.482100 33.736198
vt -22.693501 35.311001
vt -28.298000 32.377899
vt -25.375799 31.931400
vt -26.684700 38.095100
vt -28.568300 47.047001
vt -31.168699 39.208599
vt -29.944201 46.083900
vt -27.749800 37.203201
vt -24.968901 44.979301
vt -21.577900 38.187901
vt -21.976801 47.009899
vt -25.347700 39.470798
vt -28.804399 42.558998
vt -26.814800 33.955101
vt -24.137800 41.792000
vt -22.092100 41.105400
vt -23.454500 52.684502
vt -26.705400 42.146198
vt -20.889000 53.855900
vt -20.154900 42.220100
vt -15.396500 52.150002
vt -12.282600 52.031101
vt -9.316790 70.493698
vt -17.649300 54.099300
vt -13.356500 69.750702
vt -15.172700 51.139900
vt -6.909210 68.944099
vt -9.169290 70.520203
vt -23.011700 55.869301
vt -17.538700 54.144699
vt -30.379400 51.248100
vt -18.895100 67.812302
vt -25.107100 68.715897
vt -26.079700 55.559898
vt -24.408600 43.855598
vt -20.511600 54.172501
vt -22.713400 44.863400
vt -23.866800 56.630001
vt -27.615200 46.258202
vt -52.631401 9.652870
vt -57.191101 14.954500
vt -56.513401 9.063070
vt -53.320702 15.607400
vt -57.191502 15.016900
vt -52.639301 9.708800
vt -54.918800 12.898600
vt -56.990398 5.608900
vt -53.174900 6.488740
vt -57.170200 8.882530
vt -54.706699 16.049299
vt -59.245201 15.184300
vt -57.520100 18.487200
vt -59.403801 9.535410
vt -54.919800 10.648900
vt -59.326401 11.670800
vt -57.132099 20.551600
vt -62.107300 19.447001
vt -62.767101 14.902200
vt -63.166000 6.080300
vt -59.396198 7.363130
vt -62.570499 17.775400
vt -60.580898 26.379299
vt -65.247498 25.612200
vt -60.328899 6.431030
vt -59.350800 13.666600
vt -63.199600 12.645000
vt -59.373299 13.136200
vt -60.288101 5.892290
vt -57.067501 6.915150
vt -59.127899 11.279600
vt -57.146900 17.525499
vt -60.453300 16.827801
vt -57.190800 14.919000
vt -58.905998 8.594950
vt -56.509300 9.028060
vt -64.446899 14.393000
vt -59.108002 11.000100
vt -60.461399 16.541599
vt -58.499500 8.532320
vt -64.104103 11.465500
vt -61.421799 8.085920
s 1
usemtl Color_007
f 3/1/1 2/2/2 1/3/3
f 6/4/4 8/5/5 7/6/6
f 8/7/5 6/8/4 9/9/7
f 5/10/8 9/11/7 6/12/4
f 9/13/7 5/14/8 10/15/9
f 5/16/8 11/17/10 10/18/9
f 11/19/10 5/20/8 4/21/11
f 12/22/12 11/23/10 4/24/11
f 11/25/10 12/26/12 13/27/13
f 12/28/12 4/29/11 14/30/14
f 4/31/11 3/32/1 14/33/14
f 14/34/14 3/35/1 15/36/15
f 3/37/1 1/38/3 15/39/15
f 16/40/16 18/41/17 17/42/18
f 18/43/17 16/44/16 19/45/19
f 20/46/20 19/47/19 16/48/16
f 20/49/20 21/50/21 19/51/19
f 22/52/22 21/53/21 20/54/20
f 23/55/23 21/56/21 22/57/22
f 21/58/21 23/59/23 24/60/24
f 24/61/24 23/62/23 25/63/25
f 27/64/26 25/65/25 26/66/27
f 27/67/26 24/68/24 25/69/25
f 33/73/31 27/74/26 32/75/32
f 32/76/32 27/77/26 26/78/27
f 8/79/5 31/80/33 7/81/6
f 31/82/33 8/83/5 35/84/34
f 35/85/34 8/86/5 36/87/35
f 37/88/36 36/89/35 8/90/5
f 36/91/35 37/92/36 38/93/37
f 39/94/38 38/93/37 37/92/36
f 38/95/37 39/96/38 40/97/39
f 41/98/40 40/99/39 39/100/38
f 40/101/39 41/102/40 42/103/41
f 42/104/41 41/105/40 43/106/42
f 41/107/40 44/108/43 43/109/42
f 41/110/40 45/111/44 44/112/43
f 45/113/44 41/114/40 39/115/38
f 39/116/38 46/117/45 45/118/44
f 46/119/45 39/120/38 37/121/36
f 37/121/36 47/122/46 46/119/45
f 47/123/46 37/124/36 8/125/5
f 8/126/5 9/127/7 47/128/46
f 9/129/7 48/130/47 47/131/46
f 48/132/47 9/133/7 10/134/9
f 10/135/9 49/136/48 48/137/47
f 49/138/48 10/139/9 11/140/10
f 11/141/10 50/142/49 49/143/48
f 11/144/10 13/145/13 50/146/49
f 49/147/48 50/148/49 51/149/50
f 51/150/50 52/151/51 49/152/48
f 52/153/51 51/154/50 53/155/52
f 52/156/51 53/157/52 54/158/53
f 54/159/53 55/160/54 52/161/51
f 55/162/54 54/163/53 56/164/55
f 58/165/56 59/166/57 57/167/58
f 60/168/59 59/169/57 58/170/56
f 60/171/59 61/172/60 59/173/57
f 60/174/59 44/175/43 61/176/60
f 44/177/43 60/178/59 62/179/61
f 67/186/66 68/187/67 66/188/68
f 68/189/67 67/190/66 18/191/17
f 17/192/18 18/193/17 67/194/66
f 69/195/69 68/196/67 18/197/17
f 68/198/67 69/199/69 70/200/70
f 38/201/37 70/202/70 69/203/69
f 70/204/70 38/205/37 40/206/39
f 70/207/70 40/208/39 42/209/41
f 70/210/70 42/211/41 71/212/71
f 42/213/41 72/214/72 71/215/71
f 72/216/72 42/217/41 73/218/73
f 73/219/73 42/220/41 74/221/74
f 43/222/42 74/223/74 42/224/41
f 43/225/42 75/226/75 74/227/74
f 43/228/42 76/229/76 75/230/75
f 76/231/76 43/232/42 77/233/77
f 77/234/77 43/235/42 44/236/43
f 44/237/43 62/238/61 77/239/77
f 82/240/78 81/241/79 65/242/80
f 82/243/78 72/244/72 81/245/79
f 71/246/71 72/247/72 82/248/78
f 82/249/78 70/250/70 71/251/71
f 70/252/70 82/253/78 68/254/67
f 82/255/78 66/256/68 68/257/67
f 66/258/68 82/259/78 65/260/80
f 69/261/69 36/262/35 38/263/37
f 36/264/35 69/265/69 84/266/81
f 18/267/17 84/268/81 69/269/69
f 84/270/81 18/271/17 19/272/19
f 19/273/19 85/274/82 84/275/81
f 85/276/82 19/277/19 21/278/21
f 21/279/21 30/280/83 85/281/82
f 30/282/83 21/283/21 24/284/24
f 30/285/83 35/286/34 85/287/82
f 35/288/34 30/289/83 31/290/33
f 35/291/34 84/292/81 85/293/82
f 84/294/81 35/295/34 36/296/35
f 44/297/43 86/298/84 61/299/60
f 45/300/44 86/301/84 44/302/43
f 46/303/45 86/304/84 45/305/44
f 86/306/84 46/307/45 87/308/85
f 47/309/46 87/310/85 46/311/45
f 87/312/85 47/313/46 48/314/47
f 48/315/47 52/316/51 87/317/85
f 52/318/51 48/319/47 49/320/48
f 55/321/54 87/322/85 52/323/51
f 87/324/85 55/325/54 86/326/84
f 59/327/57 86/328/84 55/329/54
f 86/330/84 59/331/57 61/332/60
f 56/333/55 59/334/57 55/335/54
f 59/336/57 56/337/55 57/338/58
usemtl Gray8
f 28/70/28 24/71/29 27/72/30
usemtl Gray5
f 63/180/62 62/181/63 60/182/64
f 63/183/62 60/184/64 58/185/65
l 98 99
l 103 104
l 29 34
l 73 83
l 63 64
l 79 80
l 79 83
l 108 109
l 101 102
l 105 106
l 28 29
l 90 91
l 92 93
l 94 95
l 96 97
