# Blender 5.1.0
# www.blender.org
mtllib cofre.mtl
o cofrenuevo
v -2.072078 1.376721 -1.114950
v -2.015264 1.377783 -1.119850
v -2.083879 1.395192 -0.985149
v -2.123127 1.405948 -0.859950
v -2.152127 1.412554 -0.697650
v -2.163308 1.416826 -0.538650
v -2.169040 1.417573 -0.354150
v -2.641554 1.425332 -0.354150
v -2.625316 1.422559 -0.502450
v -2.616568 1.415326 -0.647750
v -2.617265 1.408126 -0.793650
v -2.405917 1.380776 -1.056049
v -2.624654 1.386732 -1.010750
v -2.267729 1.379677 -1.083250
v -2.169898 1.378204 -1.100450
v -2.977548 1.383398 0.208150
v -3.075697 1.372223 0.177450
v -3.100803 1.383085 0.011650
v -2.893652 1.401734 0.043050
v -2.880122 1.389028 0.238851
v -2.617265 1.408126 0.085350
v -2.624654 1.386732 0.302450
v -2.405917 1.380776 0.347750
v -2.123127 1.405948 0.151650
v -2.267729 1.379677 0.374950
v -2.169898 1.378204 0.392150
v -2.083879 1.395193 0.276850
v -2.051955 1.372121 0.218550
v -2.065867 1.373935 0.171451
v -2.152127 1.412554 -0.010650
v -2.163308 1.416826 -0.169650
v -2.072078 1.376722 0.406650
v -2.015264 1.377783 0.411550
v -2.069089 1.374355 0.156950
v -2.625316 1.422559 -0.205850
v -2.905298 1.413811 -0.205850
v -2.921174 1.419361 -0.354150
v -3.114478 1.398245 -0.205850
v -3.130363 1.403799 -0.354150
v -3.281477 1.375684 -0.197450
v -3.297363 1.381237 -0.354150
v -3.425351 1.333651 -0.180650
v -3.441598 1.336431 -0.354150
v -3.425351 1.333651 -0.527650
v -3.281477 1.375684 -0.510850
v -3.114478 1.398245 -0.502450
v -2.905298 1.413811 -0.502450
v -2.896064 1.406516 -0.631350
v -2.893652 1.401734 -0.751350
v -2.880122 1.389028 -0.947150
v -2.977548 1.383398 -0.916450
v -3.100803 1.383085 -0.719950
v -3.075697 1.372223 -0.885650
v -3.188417 1.360129 -0.845050
v -3.271452 1.360999 -0.695050
v -3.301861 1.342487 -0.804450
v -3.398839 1.314236 -0.761849
v -3.496609 1.280448 -0.703750
v -3.410581 1.321168 -0.688050
v -3.494845 1.291499 -0.631050
v -3.415234 1.326246 -0.626550
v -3.501767 1.298043 -0.538750
v -3.506415 1.270909 -0.662350
v -3.496123 1.265306 -0.661350
v -3.398839 1.314236 0.053550
v -3.301861 1.342487 0.096150
v -3.188417 1.360129 0.136750
v -3.271452 1.360999 -0.013249
v -3.104896 1.390909 -0.089150
v -3.271608 1.368311 -0.098750
v -3.415234 1.326246 -0.081750
v -3.494845 1.291499 -0.077250
v -3.501767 1.298043 -0.169550
v -3.511495 1.299312 -0.244350
v -3.521793 1.297834 -0.295950
v -3.521793 1.297834 -0.412350
v -3.511495 1.299312 -0.463950
v -3.492747 1.273336 -0.162149
v -3.493596 1.271310 -0.281750
v -3.496609 1.280448 -0.004550
v -3.410581 1.321169 -0.020249
v -3.515255 1.282773 -0.148550
v -2.896064 1.406516 -0.076950
v -2.616568 1.415326 -0.060550
v -3.271608 1.368311 -0.609550
v -3.104896 1.390909 -0.619150
v -3.501388 1.279844 -0.078050
v -3.500931 1.279785 -0.068350
v -3.494179 1.278904 -0.022450
v -3.493722 1.278845 -0.012650
v -3.504253 1.280218 -0.098949
v -3.504709 1.280277 -0.108749
v -3.498254 1.279436 -0.050250
v -3.497798 1.279376 -0.040450
v -3.513319 1.282226 -0.160150
v -3.513776 1.282286 -0.169849
v -3.517060 1.281848 -0.476950
v -3.516604 1.281788 -0.486750
v -3.514863 1.281602 -0.517449
v -3.515320 1.281661 -0.507649
v -3.501388 1.279844 -0.630250
v -3.500931 1.279785 -0.639950
v -3.498254 1.279436 -0.658050
v -3.497798 1.279376 -0.667850
vn -0.0197 0.9913 -0.1299
vn -0.0309 0.9892 -0.1436
vn -0.0186 0.9896 -0.1424
vn 0.0126 0.9998 -0.0159
vn -0.0064 1.0000 -0.0000
vn 0.0164 0.9999 -0.0000
vn -0.0125 0.9992 -0.0376
vn 0.0026 0.9991 -0.0415
vn -0.0195 0.9987 -0.0481
vn -0.0120 0.9972 -0.0733
vn -0.0145 0.9959 -0.0893
vn -0.0058 0.9943 -0.1062
vn -0.0042 0.9952 -0.0979
vn -0.0185 0.9933 -0.1143
vn -0.0083 0.9902 -0.1397
vn -0.1058 0.9918 0.0720
vn -0.1184 0.9902 0.0743
vn -0.1380 0.9867 0.0856
vn -0.0620 0.9966 0.0547
vn -0.0429 0.9960 0.0782
vn -0.0120 0.9972 0.0734
vn -0.0042 0.9952 0.0979
vn -0.0058 0.9943 0.1062
vn -0.0145 0.9959 0.0893
vn -0.0186 0.9933 0.1143
vn -0.0197 0.9913 0.1299
vn -0.0083 0.9902 0.1397
vn -0.0309 0.9892 0.1436
vn -0.0184 0.9896 0.1424
vn 0.0126 0.9998 0.0161
vn -0.0125 0.9992 0.0376
vn -0.0516 0.9974 0.0497
vn -0.0566 0.9984 -0.0000
vn -0.1035 0.9927 0.0616
vn -0.1132 0.9936 -0.0000
vn -0.1877 0.9798 0.0695
vn -0.2354 0.9719 -0.0000
vn -0.3411 0.9368 0.0783
vn -0.3773 0.9261 -0.0000
vn -0.3411 0.9368 -0.0783
vn -0.1877 0.9798 -0.0695
vn -0.1035 0.9927 -0.0616
vn -0.0515 0.9974 -0.0499
vn -0.0587 0.9967 -0.0557
vn -0.0622 0.9966 -0.0547
vn -0.0429 0.9960 -0.0782
vn -0.1058 0.9918 -0.0720
vn -0.1184 0.9902 -0.0744
vn -0.1379 0.9868 -0.0855
vn -0.1561 0.9833 -0.0935
vn -0.1948 0.9769 -0.0883
vn -0.2682 0.9568 -0.1126
vn -0.4303 0.8795 -0.2032
vn -0.3376 0.9345 -0.1129
vn -0.4067 0.8897 -0.2077
vn -0.4000 0.9100 -0.1091
vn -0.3312 0.9379 -0.1033
vn -0.4111 0.9079 -0.0825
vn -0.1561 0.9833 0.0934
vn -0.1948 0.9769 0.0883
vn -0.2682 0.9568 0.1126
vn -0.1076 0.9913 0.0757
vn -0.2134 0.9729 0.0894
vn -0.3312 0.9379 0.1033
vn -0.4000 0.9100 0.1092
vn -0.4111 0.9079 0.0825
vn -0.4056 0.9122 0.0581
vn -0.5018 0.8648 0.0181
vn -0.5018 0.8648 -0.0181
vn -0.4056 0.9122 -0.0582
vn -0.3376 0.9345 0.1129
vn -0.4303 0.8795 0.2032
vn -0.4067 0.8897 0.2077
vn -0.0587 0.9967 0.0557
vn -0.0195 0.9987 0.0481
vn 0.0026 0.9991 0.0415
vn -0.2134 0.9729 -0.0896
vn -0.1076 0.9913 -0.0757
vn 0.4799 0.8711 -0.1041
vn 0.5262 0.8461 -0.0844
vn 0.4515 0.8868 -0.0988
vn -0.7796 0.6187 -0.0971
vn -0.7121 0.6936 -0.1086
vn -0.8090 0.5818 -0.0839
vn -0.8262 0.5605 -0.0562
vt 0.409973 0.586055
vt 0.396700 0.589663
vt 0.396040 0.585630
vt 0.458519 0.581073
vt 0.386352 0.500476
vt 0.479344 0.580197
vt 0.368698 0.502028
vt 0.440764 0.581951
vt 0.351435 0.502554
vt 0.334010 0.502323
vt 0.423084 0.583889
vt 0.307945 0.517242
vt 0.308178 0.500511
vt 0.307930 0.527534
vt 0.395518 0.578822
vt 0.425100 0.438846
vt 0.399271 0.428221
vt 0.420788 0.428950
vt 0.404663 0.448581
vt 0.429291 0.447924
vt 0.439765 0.499461
vt 0.465978 0.496222
vt 0.471617 0.512920
vt 0.537030 0.581002
vt 0.474855 0.523206
vt 0.551261 0.582488
vt 0.564199 0.574504
vt 0.566373 0.585404
vt 0.565830 0.581337
vt 0.500344 0.580010
vt 0.404477 0.501060
vt 0.373279 0.449537
vt 0.354422 0.449171
vt 0.371004 0.429146
vt 0.351590 0.428726
vt 0.370252 0.411029
vt 0.349283 0.410593
vt 0.370981 0.392647
vt 0.347404 0.391945
vt 0.324429 0.394080
vt 0.328915 0.412267
vt 0.332745 0.430260
vt 0.336101 0.450584
vt 0.320229 0.451181
vt 0.305384 0.451378
vt 0.281560 0.452085
vt 0.283138 0.442904
vt 0.305252 0.430958
vt 0.284834 0.432899
vt 0.287503 0.421123
vt 0.305096 0.412630
vt 0.290318 0.408398
vt 0.299962 0.382625
vt 0.303470 0.395115
vt 0.294027 0.395982
vt 0.309624 0.383498
vt 0.311501 0.394849
vt 0.321834 0.382974
vt 0.414986 0.417351
vt 0.394737 0.409945
vt 0.409016 0.404817
vt 0.386206 0.428932
vt 0.383428 0.410935
vt 0.384412 0.392605
vt 0.384345 0.381160
vt 0.371740 0.381412
vt 0.361470 0.380817
vt 0.354336 0.379813
vt 0.338553 0.380309
vt 0.331738 0.381749
vt 0.392726 0.392369
vt 0.394203 0.379670
vt 0.402728 0.392641
vt 0.389575 0.449229
vt 0.422130 0.500643
vt 0.518488 0.579976
vt 0.316211 0.412946
vt 0.317994 0.430917
vt 0.544741 0.582887
vt 0.305424 0.380566
s 1
g off
g cofrenuevo_Color_007.001
usemtl Color_007.001
f 3/1/1 2/2/2 1/3/3
f 6/4/4 8/5/5 7/6/6
f 8/5/5 6/4/4 9/7/7
f 5/8/8 9/7/7 6/4/4
f 9/7/7 5/8/8 10/9/9
f 5/8/8 11/10/10 10/9/9
f 11/10/10 5/8/8 4/11/11
f 12/12/12 11/10/10 4/11/11
f 11/10/10 12/12/12 13/13/13
f 12/12/12 4/11/11 14/14/14
f 4/11/11 3/1/1 14/14/14
f 14/14/14 3/1/1 15/15/15
f 3/1/1 1/3/3 15/15/15
f 16/16/16 18/17/17 17/18/18
f 18/17/17 16/16/16 19/19/19
f 20/20/20 19/19/19 16/16/16
f 20/20/20 21/21/21 19/19/19
f 22/22/22 21/21/21 20/20/20
f 23/23/23 21/21/21 22/22/22
f 21/21/21 23/23/23 24/24/24
f 24/24/24 23/23/23 25/25/25
f 27/26/26 25/25/25 26/27/27
f 27/26/26 24/24/24 25/25/25
f 33/28/28 27/26/26 32/29/29
f 32/29/29 27/26/26 26/27/27
f 8/5/5 31/30/30 7/6/6
f 31/30/30 8/5/5 35/31/31
f 35/31/31 8/5/5 36/32/32
f 37/33/33 36/32/32 8/5/5
f 36/32/32 37/33/33 38/34/34
f 39/35/35 38/34/34 37/33/33
f 38/34/34 39/35/35 40/36/36
f 41/37/37 40/36/36 39/35/35
f 40/36/36 41/37/37 42/38/38
f 42/38/38 41/37/37 43/39/39
f 41/37/37 44/40/40 43/39/39
f 41/37/37 45/41/41 44/40/40
f 45/41/41 41/37/37 39/35/35
f 39/35/35 46/42/42 45/41/41
f 46/42/42 39/35/35 37/33/33
f 37/33/33 47/43/43 46/42/42
f 47/43/43 37/33/33 8/5/5
f 8/5/5 9/7/7 47/43/43
f 9/7/7 48/44/44 47/43/43
f 48/44/44 9/7/7 10/9/9
f 10/9/9 49/45/45 48/44/44
f 49/45/45 10/9/9 11/10/10
f 11/10/10 50/46/46 49/45/45
f 11/10/10 13/13/13 50/46/46
f 49/45/45 50/46/46 51/47/47
f 51/47/47 52/48/48 49/45/45
f 52/48/48 51/47/47 53/49/49
f 52/48/48 53/49/49 54/50/50
f 54/50/50 55/51/51 52/48/48
f 55/51/51 54/50/50 56/52/52
f 58/53/53 59/54/54 57/55/55
f 60/56/56 59/54/54 58/53/53
f 60/56/56 61/57/57 59/54/54
f 60/56/56 44/40/40 61/57/57
f 44/40/40 60/56/56 62/58/58
f 67/59/59 68/60/60 66/61/61
f 68/60/60 67/59/59 18/17/17
f 17/18/18 18/17/17 67/59/59
f 69/62/62 68/60/60 18/17/17
f 68/60/60 69/62/62 70/63/63
f 38/34/34 70/63/63 69/62/62
f 70/63/63 38/34/34 40/36/36
f 70/63/63 40/36/36 42/38/38
f 70/63/63 42/38/38 71/64/64
f 42/38/38 72/65/65 71/64/64
f 72/65/65 42/38/38 73/66/66
f 73/66/66 42/38/38 74/67/67
f 43/39/39 74/67/67 42/38/38
f 43/39/39 75/68/68 74/67/67
f 43/39/39 76/69/69 75/68/68
f 76/69/69 43/39/39 77/70/70
f 77/70/70 43/39/39 44/40/40
f 44/40/40 62/58/58 77/70/70
f 81/71/71 80/72/72 65/73/73
f 81/71/71 72/65/65 80/72/72
f 71/64/64 72/65/65 81/71/71
f 81/71/71 70/63/63 71/64/64
f 70/63/63 81/71/71 68/60/60
f 81/71/71 66/61/61 68/60/60
f 66/61/61 81/71/71 65/73/73
f 69/62/62 36/32/32 38/34/34
f 36/32/32 69/62/62 83/74/74
f 18/17/17 83/74/74 69/62/62
f 83/74/74 18/17/17 19/19/19
f 19/19/19 84/75/75 83/74/74
f 84/75/75 19/19/19 21/21/21
f 21/21/21 30/76/76 84/75/75
f 30/76/76 21/21/21 24/24/24
f 30/76/76 35/31/31 84/75/75
f 35/31/31 30/76/76 31/30/30
f 35/31/31 83/74/74 84/75/75
f 83/74/74 35/31/31 36/32/32
f 44/40/40 85/77/77 61/57/57
f 45/41/41 85/77/77 44/40/40
f 46/42/42 85/77/77 45/41/41
f 85/77/77 46/42/42 86/78/78
f 47/43/43 86/78/78 46/42/42
f 86/78/78 47/43/43 48/44/44
f 48/44/44 52/48/48 86/78/78
f 52/48/48 48/44/44 49/45/45
f 55/51/51 86/78/78 52/48/48
f 86/78/78 55/51/51 85/77/77
f 59/54/54 85/77/77 55/51/51
f 85/77/77 59/54/54 61/57/57
f 56/52/52 59/54/54 55/51/51
f 59/54/54 56/52/52 57/55/55
g cofrenuevo_Gray8.001
usemtl Gray8.001
f 28/79/79 24/24/80 27/26/81
g cofrenuevo_Gray5.001
usemtl Gray5.001
f 63/80/82 62/58/83 60/56/84
f 63/80/82 60/56/84 58/53/85
l 95 96
l 99 100
l 29 34
l 73 82
l 63 64
l 78 79
l 78 82
l 103 104
l 97 98
l 101 102
l 28 29
l 87 88
l 89 90
l 91 92
l 93 94
